HIERARCHY
ROOT Hips
{
	OFFSET 0.00000 0.00000 0.00000
	CHANNELS 6 Xposition Yposition Zposition Zrotation Yrotation Xrotation 
	JOINT LHipJoint
	{
		OFFSET 0 0 0
		CHANNELS 3 Zrotation Yrotation Xrotation
		JOINT LeftUpLeg
		{
			OFFSET 1.77779 -1.88989 0.48267
			CHANNELS 3 Zrotation Yrotation Xrotation
			JOINT LeftLeg
			{
				OFFSET 2.53442 -6.96327 0.00000
				CHANNELS 3 Zrotation Yrotation Xrotation
				JOINT LeftFoot
				{
					OFFSET 2.71068 -7.44755 0.00000
					CHANNELS 3 Zrotation Yrotation Xrotation
					JOINT LeftToeBase
					{
						OFFSET 0.17992 -0.49431 2.22524
						CHANNELS 3 Zrotation Yrotation Xrotation
						End Site
						{
							OFFSET 0.00000 -0.00000 1.14687
						}
					}
				}
			}
		}
	}
	JOINT RHipJoint
	{
		OFFSET 0 0 0
		CHANNELS 3 Zrotation Yrotation Xrotation
		JOINT RightUpLeg
		{
			OFFSET -1.58469 -1.88989 0.48267
			CHANNELS 3 Zrotation Yrotation Xrotation
			JOINT RightLeg
			{
				OFFSET -2.60386 -7.15404 0.00000
				CHANNELS 3 Zrotation Yrotation Xrotation
				JOINT RightFoot
				{
					OFFSET -2.73334 -7.50979 0.00000
					CHANNELS 3 Zrotation Yrotation Xrotation
					JOINT RightToeBase
					{
						OFFSET -0.25618 -0.70384 2.21822
						CHANNELS 3 Zrotation Yrotation Xrotation
						End Site
						{
							OFFSET -0.00000 -0.00000 1.16381
						}
					}
				}
			}
		}
	}
	JOINT LowerBack
	{
		OFFSET 0 0 0
		CHANNELS 3 Zrotation Yrotation Xrotation
		JOINT Spine
		{
			OFFSET 0.03410 2.01612 -0.22230
			CHANNELS 3 Zrotation Yrotation Xrotation
			JOINT Spine1
			{
				OFFSET 0.03465 2.03012 0.00937
				CHANNELS 3 Zrotation Yrotation Xrotation
				JOINT Neck
				{
					OFFSET 0 0 0
					CHANNELS 3 Zrotation Yrotation Xrotation
					JOINT Neck1
					{
						OFFSET -0.00219 1.70459 0.20857
						CHANNELS 3 Zrotation Yrotation Xrotation
						JOINT Head
						{
							OFFSET 0.02518 1.72339 -0.22179
							CHANNELS 3 Zrotation Yrotation Xrotation
							End Site
							{
								OFFSET 0.00282 1.74122 -0.09823
							}
						}
					}
				}
				JOINT LeftShoulder
				{
					OFFSET 0 0 0
					CHANNELS 3 Zrotation Yrotation Xrotation
					JOINT LeftArm
					{
						OFFSET 3.36358 1.00547 -0.37661
						CHANNELS 3 Zrotation Yrotation Xrotation
						JOINT LeftForeArm
						{
							OFFSET 5.06507 -0.00000 0.00000
							CHANNELS 3 Zrotation Yrotation Xrotation
							JOINT LeftHand
							{
								OFFSET 3.60196 -0.00000 0.00000
								CHANNELS 3 Zrotation Yrotation Xrotation
								JOINT LeftFingerBase
								{
									OFFSET 0 0 0
									CHANNELS 3 Zrotation Yrotation Xrotation
									JOINT LeftHandIndex1
									{
										OFFSET 0.45035 -0.00000 0.00000
										CHANNELS 3 Zrotation Yrotation Xrotation
										End Site
										{
											OFFSET 0.36308 -0.00000 0.00000
										}
									}
								}
								JOINT LThumb
								{
									OFFSET 0 0 0
									CHANNELS 3 Zrotation Yrotation Xrotation
									End Site
									{
										OFFSET 0.36862 -0.00000 0.36862
									}
								}
							}
						}
					}
				}
				JOINT RightShoulder
				{
					OFFSET 0 0 0
					CHANNELS 3 Zrotation Yrotation Xrotation
					JOINT RightArm
					{
						OFFSET -3.50159 0.80383 -0.71526
						CHANNELS 3 Zrotation Yrotation Xrotation
						JOINT RightForeArm
						{
							OFFSET -5.36394 -0.00000 0.00000
							CHANNELS 3 Zrotation Yrotation Xrotation
							JOINT RightHand
							{
								OFFSET -3.58035 -0.00000 0.00000
								CHANNELS 3 Zrotation Yrotation Xrotation
								JOINT RightFingerBase
								{
									OFFSET 0 0 0
									CHANNELS 3 Zrotation Yrotation Xrotation
									JOINT RightHandIndex1
									{
										OFFSET -0.66375 -0.00000 0.00000
										CHANNELS 3 Zrotation Yrotation Xrotation
										End Site
										{
											OFFSET -0.53513 -0.00000 0.00000
										}
									}
								}
								JOINT RThumb
								{
									OFFSET 0 0 0
									CHANNELS 3 Zrotation Yrotation Xrotation
									End Site
									{
										OFFSET -0.54330 -0.00000 0.54330
									}
								}
							}
						}
					}
				}
			}
		}
	}
}
MOTION
Frames: 12
Frame Time: .0083333
1.1207 17.9476 4.3191 2.2489 -2.4798 -6.2718 0.0000 0.0000 0.0000 -26.6943 -0.7303 -2.9120 2.0301 8.9284 25.5716 0.6581 -3.8175 -14.5062 0.0138 -0.7591 -2.0862 0.0000 0.0000 0.0000 18.6810 3.1332 -26.2158 -13.2430 -18.8681 69.8785 -0.1057 -1.6203 -6.9633 -0.0818 -1.8446 5.0764 -2.0725 0.1747 8.1748 1.1600 0.0920 1.9799 2.3553 0.0570 -2.5384 -1.5740 -2.1791 -15.1304 -0.3982 -2.5510 19.9787 -0.1774 -1.3642 8.7567 0.0000 0.0000 0.0000 -82.4718 3.1307 32.0502 14.4765 -23.4118 -3.0149 -0.0000 0.0000 -4.8347 27.5085 26.1638 12.9322 -7.1250 0.0000 -0.0000 -2.7456 58.9407 -0.9359 0.0000 0.0000 0.0000 87.7933 -0.0172 10.6099 -14.1015 22.8796 -2.8675 0.0000 0.0000 4.7080 -14.8254 17.4390 -4.5354 7.1250 -0.0000 -0.0000 8.6518 -12.1323 6.7191
1.1266 17.9210 4.4802 2.6789 -1.9826 -6.1673 0.0000 0.0000 0.0000 -27.2963 -0.8716 -2.6905 2.0904 9.0519 25.9578 0.6980 -4.0127 -14.9346 0.0126 -0.7261 -1.9953 0.0000 0.0000 0.0000 18.1636 3.2960 -27.1211 -12.7431 -18.6874 68.3256 -0.1489 -1.6121 -8.0683 -0.0438 -1.3512 3.7156 -2.5900 -0.0070 8.3126 1.1316 -0.1977 1.7840 2.6494 -0.0780 -2.7991 -1.7477 -2.1607 -14.8377 -0.3281 -2.5051 19.9057 -0.1154 -1.3488 8.6819 0.0000 -0.0000 0.0000 -82.3713 3.0921 32.4207 14.5837 -23.5630 -3.0576 -0.0000 0.0000 -5.6831 29.4798 25.1412 13.5050 -7.1250 0.0000 -0.0000 -0.1431 58.3093 -0.0466 0.0000 -0.0000 0.0000 87.7095 -0.6137 10.8935 -14.2581 23.1025 -2.9286 0.0000 0.0000 4.1762 -14.7473 17.5226 -4.5314 7.1250 -0.0000 -0.0000 8.7049 -12.0554 6.7754
1.1303 17.8991 4.6300 2.6310 -1.6096 -5.9222 0.0000 0.0000 0.0000 -27.3467 -1.0077 -2.6749 2.1315 9.1348 26.2178 0.7324 -4.0516 -15.3058 0.0105 -0.6612 -1.8169 0.0000 0.0000 0.0000 18.2135 3.6210 -28.0193 -12.1760 -18.4640 66.5455 -0.2044 -1.8621 -9.4332 -0.0143 0.7722 -2.1221 -2.6771 -0.1929 8.4763 1.2301 -0.4543 1.5306 2.8316 -0.1959 -3.1345 -1.7749 -2.1517 -14.4466 -0.3365 -2.4933 19.7402 -0.1065 -1.3467 8.5547 0.0000 0.0000 0.0000 -82.2574 3.0207 32.2386 14.7567 -23.8061 -3.1271 -0.0000 0.0000 -5.1870 30.1232 22.9678 12.7572 -7.1250 0.0000 -0.0000 1.1700 56.0800 0.3180 0.0000 0.0000 0.0000 87.7152 -1.1649 10.9488 -14.3968 23.2991 -2.9832 0.0000 0.0000 4.0544 -14.6176 17.7967 -4.5576 7.1250 -0.0000 -0.0000 8.7962 -11.7906 6.8971
1.1291 17.8875 4.7893 2.2269 -1.6443 -5.7548 0.0000 0.0000 0.0000 -26.9932 -1.1051 -2.3403 2.1600 9.1916 26.3965 0.7836 -3.8029 -15.8728 0.0090 -0.6119 -1.6815 0.0000 0.0000 0.0000 18.7396 4.3568 -28.4900 -11.5350 -18.1871 64.5070 -0.2453 -2.2394 -10.4551 -0.4058 4.0898 -11.3293 -2.3520 -0.2291 8.4162 1.3735 -0.4669 1.5982 2.7971 -0.2073 -3.0317 -1.5522 -2.2196 -14.9043 -0.5043 -2.5945 19.8943 -0.2185 -1.3949 8.6852 0.0000 0.0000 0.0000 -81.9536 2.4205 32.1464 14.9343 -24.0545 -3.1991 -0.0000 0.0000 -4.0413 29.9801 17.8893 10.0489 -7.1250 0.0000 -0.0000 1.9605 50.4073 0.2614 0.0000 0.0000 0.0000 87.8666 -1.2491 10.7715 -14.4426 23.3639 -3.0014 0.0000 0.0000 4.1251 -14.7193 18.3498 -4.7279 7.1250 -0.0000 -0.0000 8.7429 -11.2199 6.9582
1.1271 17.8767 4.9573 2.2595 -1.7909 -5.6088 0.0000 0.0000 0.0000 -27.1297 -0.9709 -1.8732 2.1788 9.2289 26.5141 0.8422 -3.3886 -16.5282 0.0323 -1.1599 -3.1888 0.0000 0.0000 0.0000 18.7310 5.1870 -28.8601 -10.8638 -17.8678 62.3384 -0.2145 -2.9063 -10.3171 -0.1274 2.3006 -6.3371 -2.4916 -0.2021 8.1818 1.4426 -0.4360 1.7930 2.9403 -0.1985 -2.6998 -1.6390 -2.2829 -15.7141 -0.3613 -2.6760 20.0694 -0.1773 -1.4231 8.8966 -0.0000 -0.0000 0.0000 -81.7285 1.6688 32.1761 15.1202 -24.3133 -3.2753 -0.0000 0.0000 -3.5398 29.4607 17.9933 9.8980 -7.1250 0.0000 -0.0000 1.4203 50.4312 0.1901 -0.0000 -0.0000 0.0000 87.9369 -1.1101 10.4008 -14.4515 23.3765 -3.0049 0.0000 0.0000 4.6916 -15.0343 20.1466 -5.2853 7.1250 -0.0000 -0.0000 8.5959 -9.3659 7.1657
1.1239 17.8618 5.1166 2.4321 -1.7900 -5.3300 0.0000 0.0000 0.0000 -27.4084 -0.9144 -1.4098 2.1536 9.1790 26.3570 0.8884 -3.0282 -17.0479 0.0411 -1.3092 -3.6000 0.0000 0.0000 0.0000 18.5370 5.9069 -29.4455 -10.1579 -17.4977 60.0148 -0.1653 -3.7351 -9.9850 -0.0006 0.1536 -0.4220 -2.8918 -0.2467 8.0559 1.5449 -0.5232 1.7447 3.2806 -0.2390 -2.6687 -1.8101 -2.2575 -15.8214 -0.2533 -2.6188 19.9498 -0.1058 -1.3972 8.8792 -0.0000 0.0000 0.0000 -81.6503 1.4073 32.1858 15.4579 -24.7802 -3.4156 -0.0000 0.0000 -3.7152 29.6344 18.9494 10.4664 -7.1250 0.0000 -0.0000 1.4468 51.5286 0.2327 -0.0000 0.0000 0.0000 87.8423 -1.2771 10.3146 -14.4440 23.3658 -3.0019 0.0000 0.0000 4.8954 -16.4801 24.5642 -7.0112 7.1250 -0.0000 -0.0000 7.9288 -4.7018 7.3242
1.1262 17.8506 5.2771 2.4552 -1.5858 -5.1906 0.0000 0.0000 0.0000 -27.5026 -0.7747 -0.6731 2.0743 9.0192 25.8554 0.9157 -3.0035 -17.3218 0.0392 -1.2781 -3.5144 0.0000 0.0000 0.0000 18.4684 6.3035 -29.7306 -9.4070 -17.0626 57.4874 -0.1908 -4.2367 -10.9152 -0.0063 0.5138 -1.4118 -2.9357 -0.3387 8.1804 1.5630 -0.6524 1.5682 3.3410 -0.2957 -2.9100 -1.8278 -2.2276 -15.6277 -0.1431 -2.6029 20.0017 -0.0616 -1.3798 8.8633 0.0000 -0.0000 0.0000 -81.4169 1.5027 32.3318 15.9186 -25.4101 -3.6109 -0.0000 0.0000 -3.5569 30.5069 21.2802 12.0704 -7.1250 0.0000 -0.0000 1.9498 54.2954 0.4455 0.0000 -0.0000 0.0000 87.8902 -1.6662 10.2181 -14.3208 23.1914 -2.9533 0.0000 0.0000 4.7779 -15.5914 20.7667 -5.6504 7.1250 -0.0000 -0.0000 8.2649 -8.6713 6.9996
1.1277 17.8538 5.4474 2.5098 -1.4095 -5.2856 0.0000 0.0000 0.0000 -27.6470 -0.6016 0.3080 1.9750 8.8137 25.2144 0.9271 -2.8896 -17.4531 0.0321 -1.1571 -3.1812 0.0000 0.0000 0.0000 18.3608 6.6438 -29.4704 -8.6085 -16.5491 54.7260 -0.2013 -4.8587 -11.6590 -0.0288 1.0957 -3.0121 -2.8878 -0.3823 8.4119 1.4765 -0.7147 1.5749 3.2339 -0.3252 -3.0288 -1.6842 -2.2553 -15.6647 -0.1282 -2.6806 20.0351 -0.0904 -1.4036 8.8799 0.0000 0.0000 0.0000 -81.1000 1.0498 32.3011 16.1157 -25.6773 -3.6960 -0.0000 0.0000 -2.6692 29.5233 26.3518 14.1103 -7.1250 0.0000 -0.0000 -0.4876 59.6308 -0.1742 0.0000 0.0000 0.0000 88.1397 -1.7679 9.8183 -14.1846 22.9979 -2.8998 0.0000 0.0000 4.9259 -15.1602 19.4066 -5.1443 7.1250 -0.0000 -0.0000 8.4880 -10.1013 6.9464
1.1238 17.8674 5.6174 2.4559 -1.3870 -5.2101 0.0000 0.0000 0.0000 -27.6674 -0.6818 1.0471 1.8479 8.5417 24.3720 0.8997 -2.7924 -17.2012 0.0084 -0.5933 -1.6305 0.0000 0.0000 0.0000 18.3477 7.3763 -29.2093 -7.7813 -15.9560 51.7712 -0.1559 -5.9332 -11.8906 -0.0154 0.8000 -2.1986 -2.9457 -0.4262 8.2936 1.5258 -0.7732 1.6924 3.3209 -0.3592 -2.8351 -1.5932 -2.2783 -15.7462 -0.1282 -2.7332 19.8592 -0.1115 -1.4209 8.8334 -0.0000 -0.0000 0.0000 -80.9031 0.4005 32.4036 15.9453 -25.4465 -3.6224 -0.0000 0.0000 -4.1317 29.4455 19.0354 10.4324 -7.1250 0.0000 -0.0000 1.2384 51.5890 0.2010 -0.0000 -0.0000 0.0000 88.2754 -1.9183 9.8075 -14.3553 23.2403 -2.9669 0.0000 0.0000 4.8449 -14.6400 19.0488 -4.8731 7.1250 -0.0000 -0.0000 8.8136 -10.5208 7.1434
1.1212 17.8794 5.7824 2.3812 -1.4043 -5.0529 0.0000 0.0000 0.0000 -27.5978 -0.0206 2.1787 1.7151 8.2457 23.4628 0.9395 -2.6124 -17.6243 0.0533 -1.4896 -4.0971 0.0000 0.0000 0.0000 18.3058 8.1305 -29.0272 -6.9595 -15.2977 48.7210 -0.0991 -6.8156 -11.8218 -0.0073 0.5515 -1.5155 -2.9804 -0.4854 8.1545 1.6446 -0.8477 1.6934 3.4695 -0.3975 -2.7484 -1.7877 -2.3490 -15.9084 -0.0431 -2.7981 19.9508 -0.0612 -1.4566 8.8994 0.0000 0.0000 0.0000 -80.8281 0.2014 32.3443 16.2076 -25.8013 -3.7359 -0.0000 0.0000 -4.4183 29.4536 17.5297 9.6530 -7.1250 0.0000 -0.0000 1.4814 49.9124 0.1794 0.0000 0.0000 0.0000 88.2418 -2.1594 9.8143 -14.3951 23.2967 -2.9826 0.0000 0.0000 4.7495 -14.6714 19.6855 -5.0400 7.1250 -0.0000 -0.0000 8.8131 -9.8735 7.2601
1.1252 17.8862 5.9565 2.5819 -1.3093 -4.9195 0.0000 0.0000 0.0000 -27.8616 0.3421 3.1178 1.6034 7.9859 22.6714 0.9518 -2.5479 -17.7564 0.0679 -1.6808 -4.6244 0.0000 0.0000 0.0000 17.8986 8.6321 -28.8495 -6.1713 -14.5924 45.6655 -0.0485 -7.3699 -11.5297 -0.0039 0.4047 -1.1121 -3.1684 -0.5681 8.0337 1.6229 -0.9709 1.7482 3.5625 -0.4613 -2.6113 -1.7566 -2.3712 -16.2511 -0.0882 -2.8191 19.9510 -0.0887 -1.4680 8.9610 -0.0000 -0.0000 0.0000 -80.6734 -0.0995 32.2979 16.4935 -26.1852 -3.8611 -0.0000 0.0000 -4.6121 28.7064 22.0521 11.6185 -7.1250 0.0000 -0.0000 -0.1540 54.7695 -0.0370 -0.0000 -0.0000 0.0000 88.2675 -2.0768 9.4437 -14.1215 22.9081 -2.8752 0.0000 0.0000 5.2407 -14.9330 21.1105 -5.4867 7.1250 -0.0000 -0.0000 8.6991 -8.4027 7.4229
1.1215 17.8830 6.1229 2.6398 -1.1572 -4.7054 0.0000 0.0000 0.0000 -27.9310 0.3519 3.7931 1.5118 7.7651 22.0028 0.9370 -2.6235 -17.5981 0.0251 -1.0225 -2.8108 0.0000 0.0000 0.0000 17.6092 9.3387 -28.6608 -5.4175 -13.8391 42.5965 0.0021 -8.0933 -11.4955 -0.0059 -0.4981 1.3687 -3.2665 -0.6301 7.9811 1.6157 -1.0603 1.7214 3.6186 -0.5050 -2.6006 -1.6428 -2.3879 -16.3402 -0.0933 -2.8679 19.7852 -0.1151 -1.4824 8.9185 -0.0000 0.0000 0.0000 -80.4476 -0.4487 32.4075 16.6158 -26.3484 -3.9153 -0.0000 0.0000 -4.8667 27.9065 24.9693 12.6023 -7.1250 0.0000 -0.0000 -1.8686 57.7561 -0.5836 -0.0000 0.0000 0.0000 88.3776 -1.9275 8.9737 -13.7313 22.3493 -2.7251 0.0000 0.0000 5.7304 -15.3613 21.3325 -5.7071 7.1250 -0.0000 -0.0000 8.4370 -8.1259 7.2408
